<svg width="64" height="64" viewBox="0 0 64 64" fill="none" xmlns="http://www.w3.org/2000/svg">
<path d="M44.8498 27.0246L36.5128 25.8126L32.7843 18.2586C32.7121 18.1121 32.6004 17.9888 32.4617 17.9025C32.3231 17.8162 32.1631 17.7705 31.9998 17.7705C31.8365 17.7705 31.6764 17.8162 31.5378 17.9025C31.3992 17.9888 31.2874 18.1121 31.2153 18.2586L27.4868 25.8126L19.1498 27.0246C18.9882 27.048 18.8364 27.1161 18.7115 27.2213C18.5866 27.3264 18.4937 27.4645 18.4432 27.6198C18.3928 27.775 18.3868 27.9413 18.4259 28.0998C18.4651 28.2583 18.5478 28.4027 18.6648 28.5166L24.6998 34.4001L23.2733 42.7001C23.2457 42.861 23.2636 43.0264 23.3251 43.1777C23.3866 43.3289 23.4892 43.4599 23.6213 43.5559C23.7534 43.6519 23.9097 43.709 24.0725 43.7208C24.2354 43.7326 24.3982 43.6986 24.5428 43.6226L31.9998 39.7031L39.4568 43.6231C39.6013 43.6991 39.7643 43.7331 39.9272 43.7213C40.0901 43.7095 40.2464 43.6524 40.3785 43.5563C40.5106 43.4603 40.6132 43.3292 40.6747 43.1779C40.7361 43.0265 40.754 42.861 40.7263 42.7001L39.3023 34.4001L45.3348 28.5166C45.4517 28.4027 45.5345 28.2583 45.5736 28.0998C45.6128 27.9413 45.6068 27.775 45.5563 27.6198C45.5058 27.4645 45.4129 27.3264 45.288 27.2213C45.1632 27.1161 45.0114 27.048 44.8498 27.0246ZM37.7498 33.4656C37.6485 33.5647 37.5727 33.6869 37.5292 33.8217C37.4856 33.9566 37.4755 34.1 37.4998 34.2396L38.6998 41.2501L32.4068 37.9401C32.2812 37.8741 32.1414 37.8396 31.9995 37.8396C31.8576 37.8396 31.7179 37.8741 31.5923 37.9401L25.2998 41.2501L26.4998 34.2396C26.524 34.1 26.5139 33.9566 26.4704 33.8217C26.4268 33.6869 26.3511 33.5647 26.2498 33.4656L21.1558 28.5001L28.1933 27.4771C28.3336 27.457 28.4669 27.4031 28.5817 27.32C28.6965 27.2369 28.7894 27.1271 28.8523 27.0001L31.9998 20.6226L35.1498 27.0001C35.2125 27.1274 35.3052 27.2375 35.4201 27.3209C35.5349 27.4043 35.6683 27.4584 35.8088 27.4786L42.8438 28.5001L37.7498 33.4656Z" fill="#FA8C16"/>
<path d="M32 8.625C27.3769 8.625 22.8576 9.99592 19.0136 12.5644C15.1696 15.1329 12.1735 18.7836 10.4043 23.0548C8.63513 27.326 8.17223 32.0259 9.07415 36.5602C9.97608 41.0945 12.2023 45.2596 15.4714 48.5286C18.7404 51.7977 22.9055 54.0239 27.4398 54.9259C31.9741 55.8278 36.674 55.3649 40.9452 53.5957C45.2165 51.8265 48.8671 48.8305 51.4356 44.9865C54.0041 41.1425 55.375 36.6231 55.375 32C55.3684 25.8026 52.9036 19.8609 48.5213 15.4787C44.1391 11.0965 38.1974 8.63162 32 8.625ZM32 53.625C27.723 53.625 23.542 52.3567 19.9858 49.9805C16.4296 47.6043 13.6579 44.227 12.0211 40.2755C10.3844 36.3241 9.95612 31.976 10.7905 27.7812C11.6249 23.5863 13.6845 19.7331 16.7088 16.7088C19.7331 13.6845 23.5863 11.6249 27.7812 10.7905C31.976 9.95611 36.3241 10.3844 40.2755 12.0211C44.227 13.6578 47.6044 16.4296 49.9805 19.9858C52.3567 23.542 53.625 27.723 53.625 32C53.6184 37.7333 51.3379 43.2298 47.2839 47.2839C43.2299 51.3379 37.7333 53.6184 32 53.625Z" fill="#FA8C16"/>
</svg>
