<svg width="64" height="64" viewBox="0 0 64 64" fill="none" xmlns="http://www.w3.org/2000/svg">
<path d="M41.3502 31.5996C41.9002 31.0496 42.8002 31.0496 43.3502 31.5996C43.7002 31.9496 44.2502 31.9496 44.6002 31.5996C44.9502 31.2496 44.9502 30.6996 44.6002 30.3496C43.3502 29.0996 41.4002 29.0996 40.1502 30.3496C39.8002 30.6996 39.8002 31.2496 40.1502 31.5996C40.5002 31.9496 41.0002 31.9496 41.3502 31.5996Z" fill="#FA8C16"/>
<path d="M13.0998 29.8497C11.4998 29.5997 10.3498 28.1997 10.3498 26.5997C10.3498 26.0997 9.9498 25.6997 9.4498 25.6997C8.9498 25.6997 8.5498 26.0997 8.5498 26.5997C8.5498 28.9497 10.1498 30.9497 12.4498 31.4997C10.3498 38.3497 13.4998 45.7497 19.9498 48.9997V53.3497C19.9498 53.8497 20.3498 54.2497 20.8498 54.2497H27.7498C28.2498 54.2497 28.6498 53.8497 28.6498 53.3497V50.4997H35.4498V53.2997C35.4498 53.7997 35.8498 54.1997 36.3498 54.1997H43.2498C43.7498 54.1997 44.1498 53.7997 44.1498 53.2997V49.3997C48.3498 47.6997 51.4998 44.0997 52.6998 39.6997H54.6498C55.1498 39.6997 55.5498 39.2997 55.5498 38.7997V30.9497C55.5498 30.4497 55.1498 30.0497 54.6498 30.0497H52.0998C51.1498 27.8497 49.6998 25.8997 47.8498 24.3997V18.3497C47.8498 17.8497 47.4498 17.4997 46.9498 17.4497H45.9998C43.6498 17.4497 41.5998 19.0497 41.0498 21.3497C39.2998 21.0497 38.1998 21.1497 37.0998 21.1497C38.0498 15.9497 34.5998 10.9497 29.3998 9.99968C23.4998 8.89968 18.0998 13.4497 18.0998 19.4497C18.0998 20.7997 18.3998 22.1497 18.9498 23.3497C16.2998 24.8497 14.2998 27.1497 13.0998 29.8497ZM27.5498 11.5997C34.3998 11.5497 37.9498 19.7997 33.2498 24.7497C29.8998 24.3997 26.1498 24.6497 22.7998 25.5997C16.8498 21.0497 20.0998 11.5997 27.5498 11.5997ZM19.6498 24.8497C19.9998 25.3497 20.3998 25.8497 20.8498 26.2497C20.3998 26.4497 19.9998 26.6497 19.5998 26.8997C19.1998 27.1497 19.0498 27.6997 19.2998 28.0997C19.5498 28.4997 20.0998 28.6497 20.4998 28.3997C24.2498 26.2997 31.5998 25.7497 35.9998 27.0997C36.4498 27.2497 36.9498 26.9997 37.0998 26.5497C37.2498 26.0997 36.9998 25.5997 36.5498 25.4497C36.1498 25.3497 35.7498 25.1997 35.2998 25.1497C35.7998 24.4497 36.1998 23.7497 36.5498 22.9497C37.9998 22.9997 39.3998 22.7997 41.4998 23.2997C42.0498 23.4497 42.5498 23.0497 42.5998 22.4997C42.6498 20.6997 44.1498 19.2997 45.9498 19.2997H46.0498V24.9497C46.0498 25.1997 46.1998 25.4997 46.3998 25.6497C48.3498 27.1497 49.7998 29.0997 50.6498 31.3997C50.7998 31.7497 51.0998 31.9497 51.4498 31.9497H53.7498V38.0497H51.9998C51.5998 38.0497 51.2498 38.3497 51.1498 38.7497C50.1998 43.0497 47.0998 46.5497 42.9498 48.0497C42.5998 48.1997 42.3998 48.4997 42.3998 48.8497V52.4497H37.1498V49.6497C37.1498 49.1497 36.7498 48.7497 36.2498 48.7497H27.7498C27.2498 48.7497 26.8498 49.1497 26.8498 49.6497V52.4497H21.7498V48.4497C21.7498 48.0997 21.5498 47.7997 21.2498 47.6497C14.6998 44.6497 11.7998 36.9997 14.7498 30.4997C15.7998 28.1497 17.4998 26.1997 19.6498 24.8497Z" fill="#FA8C16"/>
<path d="M27.7 22.1496H27C26.6 22.1496 26.3 21.8496 26.3 21.4496C26.3 20.9496 25.9 20.5496 25.4 20.5496C24.9 20.5496 24.5 20.9496 24.5 21.4496C24.5 22.7996 25.6 23.8996 26.95 23.8996H27.65C29.15 23.8996 30.4 22.6496 30.4 21.1496C30.4 19.9996 29.65 19.0496 28.55 18.7496L26.85 18.3496C26.55 18.2996 26.3 17.9996 26.3 17.6496V17.3496C26.3 16.9496 26.6 16.6496 27 16.6496H28C28.4 16.6496 28.7 16.9496 28.7 17.3496C28.7 17.8496 29.1 18.2496 29.6 18.2496C30.1 18.2496 30.5 17.8496 30.5 17.3496C30.5 16.1496 29.6 15.1496 28.45 14.9496V14.4996C28.45 13.9996 28.05 13.5996 27.55 13.5996C27.05 13.5996 26.65 13.9996 26.65 14.4996V14.9496C25.45 15.1496 24.6 16.1496 24.6 17.3496V17.6496C24.6 18.7996 25.35 19.7496 26.5 20.0496L28.2 20.4496C28.5 20.5496 28.75 20.7996 28.75 21.1496C28.7 21.6996 28.25 22.1496 27.7 22.1496Z" fill="#FA8C16"/>
</svg>
