<svg width="64" height="64" viewBox="0 0 64 64" fill="none" xmlns="http://www.w3.org/2000/svg">
<path d="M8.625 32.6254V54.5004C8.625 54.7325 8.71719 54.955 8.88128 55.1191C9.04538 55.2832 9.26794 55.3754 9.5 55.3754H54.5C54.7321 55.3754 54.9546 55.2832 55.1187 55.1191C55.2828 54.955 55.375 54.7325 55.375 54.5004C55.375 54.2683 55.2828 54.0458 55.1187 53.8817C54.9546 53.7176 54.7321 53.6254 54.5 53.6254H49.912V38.1754H54.5C54.732 38.1753 54.9545 38.0831 55.1186 37.919C55.2826 37.7549 55.3749 37.5324 55.375 37.3004V33.8974C55.375 33.6654 55.2828 33.4428 55.1187 33.2787C54.9546 33.1146 54.7321 33.0224 54.5 33.0224H53.3775V28.2404H54.5C54.7321 28.2404 54.9546 28.1482 55.1187 27.9841C55.2828 27.82 55.375 27.5975 55.375 27.3654V23.9624C55.375 23.7304 55.2828 23.5078 55.1187 23.3437C54.9546 23.1796 54.7321 23.0874 54.5 23.0874H53.3775V16.7234C53.3775 16.5165 53.3042 16.3164 53.1705 16.1584C53.0369 16.0005 52.8515 15.8951 52.6475 15.8609L9.6475 8.63743C9.5219 8.61604 9.39315 8.62232 9.27023 8.65583C9.1473 8.68934 9.03318 8.74927 8.93581 8.83145C8.83845 8.91362 8.7602 9.01606 8.70651 9.13161C8.65283 9.24715 8.62501 9.37302 8.625 9.50043V14.3004C8.62489 14.5021 8.69452 14.6976 8.8221 14.8538C8.94968 15.01 9.12736 15.1173 9.325 15.1574L10.634 15.4234L10.7185 31.7504H9.5C9.26794 31.7504 9.04538 31.8426 8.88128 32.0067C8.71719 32.1708 8.625 32.3934 8.625 32.6254ZM18.409 53.6254H14.978V43.0934H18.409V53.6254ZM23.643 53.6254H20.159V43.0934H23.643V53.6254ZM28.8235 53.6254H25.393V43.0934H28.8235V53.6254ZM53.6235 24.8374V26.4904H25.8435C25.6115 26.4906 25.389 26.5828 25.2249 26.7469C25.0609 26.9109 24.9686 27.1334 24.9685 27.3654V33.8974C24.9685 34.1295 25.0607 34.352 25.2248 34.5161C25.3889 34.6802 25.6114 34.7724 25.8435 34.7724H53.625V36.4259H21.875V24.8374H53.6235ZM51.6235 28.2409V33.0224H45.6345V28.2409H51.6235ZM43.8805 28.2409V33.0224H34.4615V28.2409H43.8805ZM32.7075 28.2409V33.0224H26.7185V28.2404L32.7075 28.2409ZM10.375 33.5004H16.7C16.9321 33.5004 17.1546 33.4082 17.3187 33.2441C17.4828 33.08 17.575 32.8575 17.575 32.6254V15.7619C17.5534 15.5668 17.4758 15.3821 17.3516 15.23C17.2274 15.078 17.0619 14.9651 16.875 14.9049L11.6805 13.8504L10.376 13.5854V10.5354L51.6285 17.4649V23.0854H21C20.7676 23.086 20.5448 23.1785 20.3805 23.3429C20.2161 23.5072 20.1235 23.73 20.123 23.9624V37.3004C20.123 37.4155 20.1457 37.5295 20.1898 37.6358C20.2339 37.7421 20.2985 37.8387 20.38 37.92C20.4614 38.0013 20.5581 38.0658 20.6645 38.1097C20.7709 38.1536 20.8849 38.1761 21 38.1759H48.162V53.6259H30.5735V42.2184C30.5735 41.9864 30.4813 41.7638 30.3172 41.5997C30.1531 41.4356 29.9306 41.3434 29.6985 41.3434H14.103C13.8709 41.3434 13.6484 41.4356 13.4843 41.5997C13.3202 41.7638 13.228 41.9864 13.228 42.2184V53.6254H10.375V33.5004ZM12.387 15.7789L15.825 16.4789V31.7504H12.4685L12.387 15.7789Z" fill="#FA8C16"/>
<path d="M45.1462 48.1278C45.3783 48.1278 45.6008 48.0356 45.7649 47.8715C45.929 47.7074 46.0212 47.4848 46.0212 47.2528V42.2188C46.0212 41.9867 45.929 41.7641 45.7649 41.6C45.6008 41.4359 45.3783 41.3438 45.1462 41.3438H34.0332C33.8011 41.3438 33.5786 41.4359 33.4145 41.6C33.2504 41.7641 33.1582 41.9867 33.1582 42.2188V47.2508C33.1582 47.4828 33.2504 47.7054 33.4145 47.8695C33.5786 48.0336 33.8011 48.1258 34.0332 48.1258L45.1462 48.1278ZM34.9082 43.0938H44.2712V46.3778H34.9082V43.0938Z" fill="#FA8C16"/>
</svg>
