<svg width="25" height="24" viewBox="0 0 25 24" fill="none" xmlns="http://www.w3.org/2000/svg">
<path d="M12.7593 2.38479C12.389 1.46194 11.487 0.465273 9.79771 0.602172C7.64579 0.835717 6.97519 2.89444 7.30034 4.12264C6.44332 3.54328 4.98592 3.2885 3.71385 4.37625C2.07145 6.01984 2.94995 8.24255 3.85282 8.77573C2.85775 8.68372 1.28511 9.35497 0.937183 11.1108C0.567065 13.2908 2.23182 14.5617 3.85282 14.5617H21.8282C23.7027 14.5617 24.7428 12.9429 24.6261 11.4162C24.4422 9.42361 22.6157 8.6591 21.6194 8.82288C22.4518 8.3593 23.5636 6.18149 21.8731 4.46943C20.5313 3.19532 18.8207 3.65886 18.2192 4.21461C18.5435 3.15022 18.0118 0.950002 15.8353 0.601963C15.685 0.585159 15.5402 0.576172 15.4021 0.576172C13.7407 0.576339 12.9937 1.78871 12.7593 2.38479Z" fill="white"/>
<path d="M4.01334 4.72274C3.06428 5.58038 2.71886 7.52364 4.42968 8.65964L11.2547 13.3341L7.94545 5.76556C7.25203 3.97955 5.355 3.59008 4.01334 4.72274Z" fill="#F37021"/>
<path d="M9.889 1.04354C8.7796 1.06607 7.11376 2.38495 7.85512 4.39886L11.2777 12.457L12.4804 3.98139C12.7587 1.87539 11.1622 0.903216 9.889 1.04354Z" fill="#CC004C"/>
<path d="M13.0143 3.65775H13.6614C13.6614 3.65775 14.007 3.65775 14.0541 3.82048C13.7994 4.02811 13.1061 4.05411 13.1981 5.16318L14.2862 12.4554L17.6854 4.37615C18.3808 2.57221 16.9213 1.06564 15.6266 1.01958C15.5662 1.01523 15.5055 1.01172 15.4428 1.01172C14.2807 1.01168 12.9491 1.85473 13.0143 3.65775Z" fill="#6460AA"/>
<path d="M17.5485 5.83432L14.3333 13.312L21.1564 8.6129C22.7292 7.49923 22.4755 5.71874 21.5951 4.83869C21.226 4.42448 20.5483 4.10449 19.8304 4.10449C18.9823 4.10437 18.0746 4.55344 17.5485 5.83432Z" fill="#0089D0"/>
<path d="M20.3933 9.67687L13.9856 14.1449H21.8753C23.4939 14.1449 24.5342 12.4787 24.0718 10.9498C23.7621 9.98888 22.8457 9.23449 21.7822 9.2334C21.3345 9.23361 20.8598 9.36821 20.3933 9.67687Z" fill="#0DB14B"/>
<path d="M3.83082 14.1458H11.6041L5.1948 9.6778C3.71416 8.72807 2.04915 9.28378 1.4481 10.8598C0.938628 12.6639 2.2107 14.1458 3.83082 14.1458Z" fill="#FCB711"/>
<path d="M12.437 20.2581H13.879C14.2105 20.279 14.7981 20.5679 14.7981 21.2521C14.7981 21.9678 14.1882 22.2566 13.8578 22.2892H12.437V20.2581ZM12.415 17.072H13.6019C14.0076 17.0939 14.4874 17.3932 14.4874 17.9488C14.4874 18.4939 14.1247 18.8571 13.6554 18.9219H12.415V17.072ZM10.7922 15.7461V23.6137H14.6163C15.5239 23.6137 16.6029 22.7056 16.6029 21.519C16.6029 20.2791 15.7915 19.6702 15.2781 19.4242C15.2781 19.4242 16.2181 18.8791 16.1764 17.7029C16.1336 16.1207 14.6695 15.7461 14.1676 15.7461H10.7922Z" fill="black"/>
<path d="M4.92674 23.6124V19.0809L9.88328 23.9117V15.7448H8.21773V20.1604L3.26001 15.4248V23.6124H4.92674Z" fill="black"/>
<path d="M16.8733 19.5949C16.9151 22.083 18.7058 23.9431 21.0079 23.9431C21.5538 23.9431 22.1288 23.84 22.7165 23.6139V22.0109C22.2507 22.295 21.7325 22.432 21.2247 22.432C19.8316 22.432 18.5171 21.4029 18.5715 19.531C18.6653 18.0126 19.9105 16.9642 21.2525 16.9642C21.7439 16.9642 22.2494 17.1055 22.7165 17.4143V15.8541C22.1718 15.6337 21.6304 15.5352 21.1089 15.5352C18.8125 15.5351 16.9174 17.4688 16.8733 19.5949Z" fill="black"/>
</svg>
