<svg width="80" height="24" viewBox="0 0 80 24" fill="none" xmlns="http://www.w3.org/2000/svg">
<path d="M8 5L10.5863 9.44033L15.6085 10.5279L12.1846 14.3597L12.7023 19.4721L8 17.4L3.29772 19.4721L3.81535 14.3597L0.391548 10.5279L5.41374 9.44033L8 5Z" fill="#FD902C"/>
<path d="M24 5L26.5863 9.44033L31.6085 10.5279L28.1846 14.3597L28.7023 19.4721L24 17.4L19.2977 19.4721L19.8154 14.3597L16.3915 10.5279L21.4137 9.44033L24 5Z" fill="#FD902C"/>
<path d="M40 5L42.5863 9.44033L47.6085 10.5279L44.1846 14.3597L44.7023 19.4721L40 17.4L35.2977 19.4721L35.8154 14.3597L32.3915 10.5279L37.4137 9.44033L40 5Z" fill="#FD902C"/>
<path d="M56 5L58.5863 9.44033L63.6085 10.5279L60.1846 14.3597L60.7023 19.4721L56 17.4L51.2977 19.4721L51.8154 14.3597L48.3915 10.5279L53.4137 9.44033L56 5Z" fill="#FD902C"/>
<path d="M72 5.99344L74.1542 9.69198L74.2651 9.88237L74.4804 9.929L78.6636 10.8349L75.8118 14.0265L75.665 14.1908L75.6872 14.41L76.1184 18.6684L72.2016 16.9425L72 16.8536L71.7984 16.9425L67.8816 18.6684L68.3128 14.41L68.335 14.1908L68.1882 14.0265L65.3364 10.8349L69.5196 9.929L69.7349 9.88237L69.8458 9.69198L72 5.99344Z" stroke="#FD902C"/>
<path fill-rule="evenodd" clip-rule="evenodd" d="M72 17.3999L67.2978 19.472L67.8154 14.3596L64.3916 10.5278L69.4138 9.44023L72 5V17.3999Z" fill="#FD902C"/>
</svg>
